<?xml version="1.0" encoding="iso-8859-1"?>
<!-- Generator: Adobe Illustrator 19.0.0, SVG Export Plug-In . SVG Version: 6.00 Build 0)  -->
<svg version="1.1" id="Capa_1" xmlns="http://www.w3.org/2000/svg" xmlns:xlink="http://www.w3.org/1999/xlink" x="0px" y="0px"
	 viewBox="0 0 512 512" style="enable-background:new 0 0 512 512;" xml:space="preserve">
<g>
	<path style="fill:#B3B3B3;" d="M26.611,319.658v184.729c0,4.204,3.408,7.612,7.612,7.612s7.612-3.408,7.612-7.612V299.358
		L26.611,319.658z"/>
	<path style="fill:#B3B3B3;" d="M470.164,299.358v205.029c0,4.204,3.407,7.612,7.612,7.612s7.612-3.408,7.612-7.612V319.658
		L470.164,299.358z"/>
</g>
<rect x="104.199" y="190.251" style="fill:#C27749;" width="91.411" height="15.225"/>
<path style="fill:#4F4F4F;" d="M317.407,420.65c-12.592,0-22.837-10.244-22.837-22.837v-85.767h15.225v85.767
	c0,4.198,3.414,7.612,7.612,7.612s7.612-3.414,7.612-7.612v-85.767h15.225v85.767C340.245,410.406,329.999,420.65,317.407,420.65z"
	/>
<path style="fill:#C27749;" d="M172.77,289.208v199.54l-25.243,8.414c-3.989,1.33-6.144,5.64-4.815,9.629
	c1.33,3.989,5.642,6.145,9.629,4.815l30.448-10.15c3.108-1.036,5.205-3.945,5.205-7.222V289.208H172.77z"/>
<path style="fill:#A45E43;" d="M248.895,289.208v199.54l25.243,8.414c3.989,1.33,6.144,5.64,4.815,9.629
	c-1.33,3.989-5.642,6.145-9.629,4.815l-30.448-10.15c-3.108-1.036-5.205-3.945-5.205-7.222V289.208H248.895z"/>
<path style="fill:#60312C;" d="M228.595,10.15h-1.733C224.009,4.154,217.914,0,210.833,0c-7.082,0-13.177,4.154-16.03,10.15h-1.733
	c-9.81,0-17.762,7.953-17.762,17.762s7.952,17.762,17.762,17.762h35.525c9.81,0,17.762-7.952,17.762-17.762
	S238.405,10.15,228.595,10.15z"/>
<polygon style="fill:#808080;" points="386.427,428.263 447.327,397.813 447.327,352.138 416.877,352.138 "/>
<polygon style="fill:#999999;" points="416.877,428.263 363.082,397.813 363.082,352.138 416.877,352.138 "/>
<polygon style="fill:#353535;" points="447.327,504.388 416.877,504.388 386.427,451.1 416.877,397.813 447.327,397.813 "/>
<rect x="363.084" y="397.818" style="fill:#4F4F4F;" width="53.795" height="106.575"/>
<polygon style="fill:#2DADE3;" points="133.693,228.308 64.673,258.758 103.243,167.409 133.693,167.409 "/>
<polygon style="fill:#49C9FF;" points="103.243,258.758 34.223,228.308 34.223,167.409 103.243,167.409 "/>
<polygon style="fill:#353535;" points="133.693,273.983 64.673,273.983 103.243,228.308 133.693,228.308 "/>
<rect x="34.223" y="228.313" style="fill:#4F4F4F;" width="69.02" height="45.675"/>
<polygon style="fill:#116F97;" points="271.732,304.433 149.933,304.433 241.283,350.108 271.732,350.108 "/>
<rect x="149.935" y="319.663" style="fill:#1990C2;" width="91.35" height="30.45"/>
<path style="fill:#FFA754;" d="M236.208,167.409h-30.45v106.575h50.75v-86.275C256.508,176.498,247.418,167.409,236.208,167.409z"/>
<path style="fill:#FFCB63;" d="M205.758,167.409h-20.3c-11.212,0-20.3,9.088-20.3,20.3v86.275h60.9v-86.275
	C226.058,176.498,216.968,167.409,205.758,167.409z"/>
<path style="fill:#C27749;" d="M49.507,205.471H18.998c-4.204,0-7.612-3.408-7.612-7.612s3.408-7.612,7.612-7.612h30.51
	c4.204,0,7.612,3.408,7.612,7.612S53.711,205.471,49.507,205.471z"/>
<g>
	<polygon style="fill:#CCCCCC;" points="351.916,213.077 351.916,273.983 412.816,273.983 412.816,213.084 	"/>
	<polygon style="fill:#CCCCCC;" points="477.777,228.308 447.327,228.308 416.877,152.185 477.777,197.859 	"/>
</g>
<polygon style="fill:#DBF4FF;" points="447.327,228.308 286.957,228.308 286.957,197.859 447.327,152.185 "/>
<polygon style="fill:#353535;" points="447.325,197.859 401.647,135.268 447.325,76.06 477.777,76.06 477.777,197.859 "/>
<rect x="286.959" y="76.06" style="fill:#4F4F4F;" width="160.37" height="121.8"/>
<g>
	<path style="fill:#B9D171;" d="M447.327,114.122h-129.92c-4.205,0-7.612-3.408-7.612-7.612c0-4.204,3.407-7.612,7.612-7.612h129.92
		c4.205,0,7.612,3.408,7.612,7.612C454.939,110.714,451.531,114.122,447.327,114.122z"/>
	<path style="fill:#B9D171;" d="M447.327,144.572h-99.47c-4.205,0-7.612-3.408-7.612-7.612s3.407-7.612,7.612-7.612h99.47
		c4.205,0,7.612,3.408,7.612,7.612S451.531,144.572,447.327,144.572z"/>
	<path style="fill:#B9D171;" d="M447.327,175.022h-129.92c-4.205,0-7.612-3.408-7.612-7.612s3.407-7.612,7.612-7.612h129.92
		c4.205,0,7.612,3.408,7.612,7.612S451.531,175.022,447.327,175.022z"/>
</g>
<polygon style="fill:#B3B3B3;" points="485.389,273.983 409.265,273.983 447.327,319.658 485.389,319.658 "/>
<rect x="26.613" y="273.988" style="fill:#CCCCCC;" width="420.716" height="45.675"/>
<polygon style="fill:#808080;" points="477.777,258.758 447.327,273.983 477.777,289.208 508.227,289.208 508.227,258.758 "/>
<rect x="3.773" y="258.763" style="fill:#999999;" width="474.004" height="30.45"/>
<circle style="fill:#353535;" cx="405.207" cy="473.943" r="7.612"/>
<path style="fill:#A45E43;" d="M210.833,55.825v81.2c25.226,0,45.675-20.449,45.675-45.675c0-5.34-0.926-10.462-2.61-15.225
	L210.833,55.825z"/>
<path style="fill:#C27749;" d="M167.766,76.125c-1.684,4.763-2.61,9.885-2.61,15.225c0,25.226,20.449,45.675,45.675,45.675
	c8.408,0,15.225-20.449,15.225-45.675c0-5.34-0.309-10.462-0.87-15.225l-14.355-20.3L167.766,76.125z"/>
<path style="fill:#40211D;" d="M210.833,45.675l14.355,30.45h28.71C247.626,58.387,230.717,45.675,210.833,45.675z"/>
<path style="fill:#60312C;" d="M210.833,45.675c-19.886,0-36.795,12.712-43.065,30.45h57.42
	C223.097,58.387,217.461,45.675,210.833,45.675z"/>
<g>
</g>
<g>
</g>
<g>
</g>
<g>
</g>
<g>
</g>
<g>
</g>
<g>
</g>
<g>
</g>
<g>
</g>
<g>
</g>
<g>
</g>
<g>
</g>
<g>
</g>
<g>
</g>
<g>
</g>
</svg>
